<svg width="87" height="36" viewBox="0 0 87 36" fill="none" xmlns="http://www.w3.org/2000/svg">
    <path fill-rule="evenodd" clip-rule="evenodd" d="M8.65425 0.507236C9.17897 -0.386995 10.5756 -0.023322 10.5756 1.00885V9.73026C10.5756 10.2869 11.0372 10.7374 11.6053 10.7374H16.9689C17.7737 10.7374 18.2679 11.6007 17.8457 12.2721L8.87913 26.519C8.33567 27.3834 6.97356 27.0072 6.97356 25.9914V17.5324C6.97356 16.9758 6.51197 16.5253 5.94385 16.5253H1.03101C0.239981 16.5253 -0.256136 15.6889 0.138391 15.0175L8.65425 0.507236ZM44.84 13.84V28H40.28V14.8C40.28 12.56 38.76 11.36 36.8 11.36C33.56 11.36 32.8 14.8 32.8 17.2V28H28.4V0.799999H32.64V9.6C33.36 8.88 35.2 7.6 38.4 7.6C41.88 7.6 44.84 9.44 44.84 13.84ZM46.6937 31.12C47.6537 31.28 49.5737 31.36 51.0938 31.36C52.2937 31.36 53.6537 30.24 53.6537 28.8C53.6537 28.4 53.5337 27.92 53.3337 27.36L46.6937 8H51.4937L56.0938 22.72L60.8537 8H65.6537L57.2537 31.12C56.3337 33.64 53.6537 35.6 50.6937 35.6C48.9338 35.6 47.8137 35.52 46.6937 35.36V31.12ZM67.6391 35.2V8H71.8791V9.76C71.9545 9.70515 72.0363 9.64385 72.1248 9.57759C73.0689 8.87065 74.7659 7.6 77.3991 7.6C83.2391 7.6 86.5191 12.72 86.5191 17.84C86.5191 23.6 83.3991 28.4 77.5591 28.4C74.7867 28.4 73.1264 27.288 72.1498 26.634C72.1118 26.6086 72.075 26.5839 72.0391 26.56V35.2H67.6391ZM76.9191 24C79.8391 24 82.1191 22.24 82.1191 18C82.1191 14 79.9191 12 76.9191 12C73.9191 12 71.8791 14 71.8791 18C71.8791 22 73.9991 24 76.9191 24Z" fill="white"/>
</svg>
