<?xml version="1.0" standalone="no"?>
<!DOCTYPE svg PUBLIC "-//W3C//DTD SVG 20010904//EN"
 "http://www.w3.org/TR/2001/REC-SVG-20010904/DTD/svg10.dtd">
<svg version="1.0" xmlns="http://www.w3.org/2000/svg"
 width="1088.000000pt" height="1088.000000pt" viewBox="0 0 1088.000000 1088.000000"
 preserveAspectRatio="xMidYMid meet">
<metadata>
Created by potrace 1.14, written by Peter Selinger 2001-2017
</metadata>
<g transform="translate(0.000000,1088.000000) scale(0.100000,-0.100000)"
fill="#000000" stroke="none">
<path d="M5599 9806 c-2 -2 -23 -6 -47 -10 -65 -9 -126 -39 -174 -88 -37 -37
-71 -90 -166 -258 -11 -19 -43 -75 -72 -125 -29 -49 -62 -108 -75 -131 -44
-79 -50 -89 -55 -94 -3 -3 -15 -23 -27 -45 -40 -75 -65 -120 -73 -130 -4 -5
-21 -35 -37 -65 -17 -30 -117 -206 -223 -390 -106 -184 -235 -409 -287 -500
-51 -91 -98 -172 -103 -180 -44 -74 -100 -175 -100 -182 0 -4 -4 -8 -10 -8 -5
0 -10 -4 -10 -10 0 -5 -13 -31 -29 -58 -15 -26 -39 -68 -53 -93 -14 -24 -48
-84 -77 -132 -28 -49 -51 -92 -51 -97 0 -5 -6 -15 -12 -22 -12 -13 -18 -22
-58 -92 -9 -17 -29 -51 -44 -76 -15 -25 -29 -53 -33 -62 -3 -10 -9 -18 -14
-18 -5 0 -9 -6 -9 -13 0 -7 -11 -29 -25 -50 -14 -20 -23 -37 -20 -37 3 0 1 -6
-5 -12 -17 -20 -170 -289 -170 -299 0 -5 -4 -9 -8 -9 -4 0 -13 -12 -19 -27 -7
-16 -23 -46 -37 -68 -14 -22 -33 -56 -43 -75 -9 -19 -20 -37 -23 -40 -4 -3
-13 -20 -21 -37 -8 -18 -17 -33 -21 -33 -5 0 -8 -4 -8 -9 0 -7 -122 -225 -180
-321 -33 -56 -137 -238 -145 -256 -5 -11 -15 -27 -21 -35 -7 -8 -24 -36 -39
-64 -14 -27 -35 -63 -45 -80 -11 -16 -26 -43 -34 -60 -16 -32 -46 -83 -102
-176 -19 -31 -34 -62 -34 -68 0 -6 -4 -11 -10 -11 -5 0 -10 -4 -10 -9 0 -5
-34 -66 -75 -137 -131 -224 -150 -268 -151 -352 -3 -127 42 -211 154 -290 37
-27 82 -43 129 -46 18 -1 35 -5 39 -8 3 -4 17 -3 30 2 13 5 24 6 24 2 0 -8
192 -8 206 0 5 3 18 2 29 -2 11 -4 29 -4 40 -1 11 4 29 6 40 5 23 -3 62 -4 88
-4 15 0 105 1 142 0 8 0 35 0 59 -1 24 -1 47 1 53 4 5 3 15 2 23 -3 7 -4 24
-4 36 0 13 5 26 5 28 1 3 -5 23 -5 45 -1 22 4 45 4 52 -1 7 -4 23 -3 35 1 14
6 26 5 29 0 3 -6 15 -6 30 0 14 5 25 6 25 2 0 -8 192 -8 206 0 5 3 18 2 29 -2
11 -4 29 -4 40 -1 11 4 29 6 40 5 11 -1 31 -3 45 -3 14 0 36 -1 50 -1 14 -1
31 -1 38 -1 6 1 20 1 30 1 9 0 26 0 37 0 125 5 227 -24 290 -82 17 -15 33 -28
38 -28 4 0 7 -5 7 -11 0 -6 9 -24 20 -39 54 -76 51 4 54 -1580 1 -806 6 -1478
10 -1493 42 -171 251 -281 426 -226 57 18 122 66 168 124 21 27 122 197 122
205 0 6 4 10 10 10 5 0 12 11 16 25 3 14 9 25 13 25 4 0 15 15 24 33 10 17 26
46 37 62 11 17 25 41 32 55 7 14 15 27 19 30 5 4 87 137 132 215 7 11 15 22
18 25 3 3 16 25 30 50 13 25 32 54 42 64 9 11 17 24 17 28 0 5 18 36 40 69 22
33 40 63 40 65 0 3 18 33 41 66 22 34 49 78 60 97 11 20 27 48 37 63 9 15 87
140 172 278 85 138 163 263 172 278 10 15 21 34 25 42 4 8 14 26 24 40 15 21
228 368 277 450 22 37 212 343 234 378 10 15 22 36 28 47 12 25 33 58 40 65 3
3 25 39 49 80 25 41 47 77 50 80 4 3 12 16 19 30 19 40 104 174 114 181 5 3
10 12 11 20 2 8 11 25 21 39 16 23 183 293 226 365 10 17 77 127 150 245 73
118 149 242 168 275 20 33 39 62 44 63 4 2 8 10 8 18 0 8 5 14 12 14 6 0 8 3
5 7 -4 3 -1 13 6 22 8 9 71 111 142 226 71 116 144 234 162 263 61 94 77 140
77 222 -1 85 -4 101 -34 161 -21 40 -110 140 -110 123 0 -4 -8 0 -17 8 -15 13
-42 27 -63 33 -19 5 -96 18 -102 17 -13 -3 -63 -3 -100 0 -21 2 -38 1 -38 -2
0 -7 -69 -4 -76 3 -3 3 -17 2 -30 -3 -13 -5 -25 -6 -28 -2 -3 5 -30 5 -61 2
-31 -3 -58 -3 -61 2 -3 4 -15 3 -28 -2 -13 -5 -27 -6 -30 -3 -8 8 -76 10 -76
2 0 -4 -16 -3 -35 1 -19 4 -35 4 -35 0 0 -5 -12 -5 -27 -1 -16 4 -40 4 -55 0
-16 -4 -30 -3 -33 1 -3 5 -16 5 -29 0 -13 -5 -27 -6 -30 -3 -8 8 -76 10 -76 2
0 -4 -16 -3 -35 1 -19 4 -35 4 -35 0 0 -5 -12 -5 -27 -1 -16 5 -37 5 -48 1
-11 -4 -24 -5 -28 -3 -12 7 -77 9 -77 3 0 -7 -69 -4 -76 3 -3 3 -16 2 -29 -3
-13 -5 -26 -6 -29 -3 -8 8 -102 7 -115 -1 -5 -4 -12 -2 -15 3 -4 6 -18 6 -36
1 -17 -5 -30 -5 -30 -1 0 5 -18 5 -40 1 -22 -4 -43 -4 -46 1 -2 4 -16 4 -29
-1 -14 -5 -25 -6 -25 -1 0 4 -20 5 -45 1 -25 -4 -45 -4 -45 -1 0 3 -33 6 -73
5 -63 0 -153 18 -167 35 -3 3 -18 13 -34 21 -34 18 -84 78 -117 140 l-24 45
-2 1490 c-1 820 -4 1512 -7 1538 -15 140 -134 262 -276 282 -24 4 -47 8 -51
11 -3 2 -8 2 -10 0z"/>
</g>
</svg>
